<?xml version="1.0" encoding="UTF-8"?>
<svg xmlns="http://www.w3.org/2000/svg" xmlns:xlink="http://www.w3.org/1999/xlink" width="120px" height="36px" viewBox="0 0 120 36" version="1.1">
<g id="surface1">
<path style=" stroke:none;fill-rule:nonzero;fill:rgb(0%,0%,0%);fill-opacity:1;" d="M 25.511719 18.621094 C 25.511719 14.636719 24.105469 11.054688 21.878906 8.609375 C 19.929688 5.824219 17.066406 4.0625 13.882812 4.0625 C 8.015625 4.0625 3.246094 10.039062 3.246094 17.382812 C 3.246094 21.371094 4.652344 24.949219 6.875 27.394531 C 8.828125 30.179688 11.6875 31.945312 14.875 31.945312 C 14.894531 31.945312 14.914062 31.941406 14.933594 31.941406 C 14.957031 31.941406 14.976562 31.945312 14.996094 31.945312 C 20.804688 31.945312 25.511719 26.050781 25.511719 18.777344 C 25.511719 18.75 25.511719 18.726562 25.511719 18.699219 C 25.511719 18.675781 25.511719 18.648438 25.511719 18.621094 Z M 7.40625 25.242188 C 6.359375 23.390625 5.734375 21.136719 5.71875 18.699219 C 5.753906 12.347656 9.859375 7.203125 14.933594 7.164062 C 16.878906 7.179688 18.683594 7.960938 20.160156 9.277344 C 21.855469 11.335938 22.914062 14.210938 22.914062 17.382812 C 22.914062 23.617188 18.863281 28.691406 13.882812 28.691406 C 11.347656 28.691406 9.050781 27.367188 7.40625 25.242188 Z M 3.492188 17.382812 C 3.492188 10.210938 8.152344 4.371094 13.882812 4.371094 C 16.324219 4.371094 18.566406 5.433594 20.339844 7.199219 C 18.742188 5.996094 16.871094 5.300781 14.875 5.300781 C 9.007812 5.300781 4.234375 11.277344 4.234375 18.621094 C 4.234375 21.125 4.789062 23.464844 5.75 25.46875 C 4.339844 23.246094 3.492188 20.4375 3.492188 17.382812 Z M 14.875 30.085938 C 12.378906 30.085938 10.117188 28.828125 8.464844 26.796875 C 9.992188 28.179688 11.863281 29 13.882812 29 C 19 29 23.160156 23.789062 23.160156 17.382812 C 23.160156 14.855469 22.507812 12.511719 21.402344 10.597656 C 23.023438 12.667969 24.027344 15.5 24.027344 18.621094 C 24.027344 24.941406 19.921875 30.085938 14.875 30.085938 Z M 14.875 30.085938 "/>
<path style=" stroke:none;fill-rule:nonzero;fill:rgb(0%,0%,0%);fill-opacity:1;" d="M 41.570312 23.429688 L 40.796875 21.132812 L 35.597656 21.132812 L 34.824219 23.429688 L 32.121094 23.429688 L 37.035156 9.582031 L 39.359375 9.582031 L 44.269531 23.429688 Z M 36.484375 18.542969 L 39.925781 18.542969 L 38.203125 13.4375 Z M 50.003906 12.964844 C 51.886719 12.964844 54.050781 14.722656 54.050781 18.265625 C 54.050781 21.945312 51.886719 23.625 50.003906 23.625 C 48.742188 23.625 48 22.753906 47.890625 22.398438 L 47.890625 27.1875 L 45.394531 27.1875 L 45.394531 13.140625 L 47.890625 13.140625 L 47.890625 14.089844 C 48 13.875 48.742188 12.964844 50.003906 12.964844 Z M 49.640625 20.875 C 50.714844 20.875 51.632812 19.964844 51.632812 18.265625 C 51.632812 16.625 50.714844 15.714844 49.640625 15.714844 C 48.617188 15.714844 47.777344 16.605469 47.777344 18.265625 C 47.777344 19.988281 48.617188 20.875 49.640625 20.875 Z M 60.449219 12.984375 C 61.980469 12.984375 63.542969 14.269531 63.542969 17.535156 L 63.542969 23.429688 L 61.046875 23.429688 L 61.046875 17.75 C 61.046875 16.1875 60.621094 15.695312 59.832031 15.695312 C 58.710938 15.695312 58.0625 17.058594 57.90625 17.652344 L 57.90625 23.429688 L 55.410156 23.429688 L 55.410156 13.140625 L 57.90625 13.140625 L 57.90625 14.921875 C 58.0625 14.429688 58.898438 12.984375 60.449219 12.984375 Z M 70.96875 13.140625 L 73.464844 13.140625 L 73.464844 23.429688 L 70.96875 23.429688 L 70.96875 22.398438 C 70.859375 22.753906 70.117188 23.625 68.851562 23.625 C 66.972656 23.625 64.808594 21.945312 64.808594 18.265625 C 64.808594 14.722656 66.972656 12.964844 68.851562 12.964844 C 70.117188 12.964844 70.859375 13.875 70.96875 14.089844 Z M 69.214844 20.875 C 70.242188 20.875 71.082031 19.988281 71.082031 18.265625 C 71.082031 16.605469 70.242188 15.714844 69.214844 15.714844 C 68.140625 15.714844 67.226562 16.625 67.226562 18.265625 C 67.226562 19.964844 68.140625 20.875 69.214844 20.875 Z M 83.640625 9.34375 C 85.632812 9.34375 86.847656 10.886719 87.449219 12.191406 L 85.582031 13.597656 C 84.96875 12.609375 84.429688 12.152344 83.640625 12.152344 C 82.960938 12.152344 82.457031 12.648438 82.457031 13.339844 C 82.457031 14.050781 82.769531 14.40625 83.5625 14.746094 L 84.304688 15.082031 C 86.878906 16.207031 87.761719 17.632812 87.761719 19.472656 C 87.761719 22.359375 85.582031 23.726562 83.6875 23.726562 C 81.664062 23.726562 80.117188 22.222656 79.5625 20.304688 L 81.507812 18.996094 C 81.902344 19.886719 82.488281 20.855469 83.6875 20.855469 C 84.507812 20.855469 85.125 20.441406 85.125 19.511719 C 85.125 18.660156 84.746094 18.265625 83.5625 17.710938 L 82.929688 17.433594 C 81.300781 16.703125 79.925781 15.734375 79.925781 13.203125 C 79.925781 10.945312 81.632812 9.34375 83.640625 9.34375 Z M 94.160156 12.984375 C 95.695312 12.984375 97.257812 14.269531 97.257812 17.535156 L 97.257812 23.429688 L 94.761719 23.429688 L 94.761719 17.75 C 94.761719 16.1875 94.335938 15.695312 93.546875 15.695312 C 92.425781 15.695312 91.777344 17.058594 91.617188 17.652344 L 91.617188 23.429688 L 89.121094 23.429688 L 89.121094 9.441406 L 91.617188 9.441406 L 91.617188 14.921875 C 91.777344 14.429688 92.613281 12.984375 94.160156 12.984375 Z M 102.851562 12.964844 C 104.714844 12.964844 107.179688 14.722656 107.179688 18.324219 C 107.179688 21.945312 104.714844 23.625 102.851562 23.625 C 100.988281 23.625 98.523438 21.945312 98.523438 18.324219 C 98.523438 14.722656 100.988281 12.964844 102.851562 12.964844 Z M 102.851562 15.714844 C 101.902344 15.714844 100.9375 16.625 100.9375 18.324219 C 100.9375 19.964844 101.902344 20.875 102.851562 20.875 C 103.800781 20.875 104.777344 19.964844 104.777344 18.324219 C 104.777344 16.625 103.800781 15.714844 102.851562 15.714844 Z M 112.695312 12.964844 C 114.574219 12.964844 116.738281 14.722656 116.738281 18.265625 C 116.738281 21.945312 114.574219 23.625 112.695312 23.625 C 111.429688 23.625 110.6875 22.753906 110.578125 22.398438 L 110.578125 27.1875 L 108.082031 27.1875 L 108.082031 13.140625 L 110.578125 13.140625 L 110.578125 14.089844 C 110.6875 13.875 111.429688 12.964844 112.695312 12.964844 Z M 112.328125 20.875 C 113.402344 20.875 114.320312 19.964844 114.320312 18.265625 C 114.320312 16.625 113.402344 15.714844 112.328125 15.714844 C 111.304688 15.714844 110.464844 16.605469 110.464844 18.265625 C 110.464844 19.988281 111.304688 20.875 112.328125 20.875 Z M 112.328125 20.875 "/>
</g>
</svg>
